<?xml version="1.0" encoding="UTF-8" standalone="no"?>
<svg
   width="52"
   height="52"
   viewBox="0 0 52 52"
   fill="none"
   version="1.1"
   id="svg70"
   sodipodi:docname="facebook.svg"
   xml:space="preserve"
   inkscape:version="1.2.2 (b0a8486541, 2022-12-01)"
   xmlns:inkscape="http://www.inkscape.org/namespaces/inkscape"
   xmlns:sodipodi="http://sodipodi.sourceforge.net/DTD/sodipodi-0.dtd"
   xmlns="http://www.w3.org/2000/svg"
   xmlns:svg="http://www.w3.org/2000/svg"><defs
     id="defs74" /><sodipodi:namedview
     id="namedview72"
     pagecolor="#ffffff"
     bordercolor="#666666"
     borderopacity="1.0"
     inkscape:showpageshadow="2"
     inkscape:pageopacity="0.0"
     inkscape:pagecheckerboard="0"
     inkscape:deskcolor="#d1d1d1"
     showgrid="false"
     inkscape:zoom="7.9134615"
     inkscape:cx="11.688943"
     inkscape:cy="24.199271"
     inkscape:window-width="1920"
     inkscape:window-height="1008"
     inkscape:window-x="0"
     inkscape:window-y="0"
     inkscape:window-maximized="1"
     inkscape:current-layer="layer3" /><g
     inkscape:groupmode="layer"
     id="layer1"
     inkscape:label="BG"
     style="display:none;fill:#000000"><rect
       style="fill:#000000"
       id="rect410"
       width="52"
       height="52"
       x="0"
       y="9.5367432e-07"
       ry="0.27732772" /></g><g
     inkscape:groupmode="layer"
     id="layer2"
     inkscape:label="Deco"
     style="display:none;fill:#ffffff"><path
       d="m 25.999998,30.55 c -2.4375,0 -4.55,-1.95 -4.55,-4.55 0,-2.4375 1.95,-4.55 4.55,-4.55 2.4375,0 4.55,1.95 4.55,4.55 0,2.4375 -2.1125,4.55 -4.55,4.55 z"
       fill="#ffffff"
       id="path64"
       style="fill:#ffffff" /><path
       fill-rule="evenodd"
       clip-rule="evenodd"
       d="m 31.524998,14.95 h -11.05 c -1.3,0.1625 -1.95,0.325 -2.4375,0.4875 -0.65,0.1625 -1.1375,0.4875 -1.625,0.975 -0.3858,0.3858 -0.568,0.7715 -0.7883,1.2378 -0.0581,0.1228 -0.1189,0.2517 -0.1867,0.3872 -0.0251,0.0754 -0.0542,0.1547 -0.0853,0.2397 -0.17,0.4645 -0.4022,1.0989 -0.4022,2.1978 v 11.05 c 0.1625,1.3 0.325,1.95 0.4875,2.4375 0.1625,0.65 0.4875,1.1375 0.975,1.625 0.3858,0.3858 0.7715,0.568 1.2378,0.7883 0.123,0.0581 0.2515,0.1189 0.3872,0.1867 0.0754,0.0251 0.1547,0.0542 0.2397,0.0853 0.4645,0.17 1.0989,0.4022 2.1978,0.4022 h 11.05 c 1.3,-0.1625 1.95,-0.325 2.4375,-0.4875 C 34.6125,36.4 35.1,36.075 35.5875,35.5875 c 0.3858,-0.3858 0.568,-0.7715 0.7883,-1.2378 0.0581,-0.1229 0.1189,-0.2516 0.1867,-0.3872 0.0251,-0.0754 0.0542,-0.1547 0.0853,-0.2397 0.17,-0.4645 0.4022,-1.0989 0.4022,-2.1978 v -11.05 c -0.1625,-1.3 -0.325,-1.95 -0.4875,-2.4375 -0.1625,-0.65 -0.4875,-1.1375 -0.975,-1.625 -0.3858,-0.3858 -0.7715,-0.568 -1.237802,-0.7883 -0.1228,-0.058 -0.2518,-0.119 -0.3872,-0.1867 -0.0754,-0.0251 -0.1547,-0.0542 -0.2397,-0.0853 -0.4645,-0.17 -1.0989,-0.4022 -2.1978,-0.4022 z m -5.525,4.0625 c -3.9,0 -6.9875,3.0875 -6.9875,6.9875 0,3.9 3.0875,6.9875 6.9875,6.9875 3.9,0 6.9875,-3.0875 6.9875,-6.9875 0,-3.9 -3.0875,-6.9875 -6.9875,-6.9875 z M 34.775,18.85 c 0,0.8975 -0.727502,1.625 -1.625002,1.625 -0.8975,0 -1.625,-0.7275 -1.625,-1.625 0,-0.8975 0.7275,-1.625 1.625,-1.625 0.8975,0 1.625002,0.7275 1.625002,1.625 z"
       fill="#ffffff"
       id="path66"
       style="fill:#ffffff" /><path
       fill-rule="evenodd"
       clip-rule="evenodd"
       d="M -2e-6,26 C -2e-6,11.6406 11.640598,2e-7 25.999998,2e-7 40.3594,2e-7 52,11.6406 52,26 52,40.3594 40.3594,52 25.999998,52 c -14.3594,0 -26,-11.6406 -26,-26 z m 20.475,-13.4875 h 11.05 c 1.4625,0.1625 2.4375,0.325 3.250002,0.65 0.975,0.4875 1.625,0.8125 2.4375,1.625 0.8125,0.8125 1.3,1.625 1.625,2.4375 0.325,0.8125 0.65,1.7875 0.65,3.25 v 11.05 c -0.1625,1.4625 -0.325,2.4375 -0.65,3.25 -0.4875,0.975 -0.8125,1.625 -1.625,2.4375 -0.8125,0.8125 -1.625,1.3 -2.4375,1.625 -0.812502,0.325 -1.787502,0.65 -3.250002,0.65 h -11.05 c -1.4625,-0.1625 -2.4375,-0.325 -3.25,-0.65 -0.975,-0.4875 -1.625,-0.8125 -2.4375,-1.625 -0.8125,-0.8125 -1.3,-1.625 -1.625,-2.4375 -0.325,-0.8125 -0.65,-1.7875 -0.65,-3.25 v -11.05 c 0.1625,-1.4625 0.325,-2.4375 0.65,-3.25 0.4875,-0.975 0.8125,-1.625 1.625,-2.4375 0.8125,-0.8125 1.625,-1.3 2.4375,-1.625 0.8125,-0.325 1.7875,-0.65 3.25,-0.65 z"
       fill="#ffffff"
       id="path68"
       style="fill:#ffffff" /></g><g
     inkscape:groupmode="layer"
     id="layer3"
     inkscape:label="Deco 2"
     style="display:inline"><path
       id="path561"
       style="fill:#ffffff"
       d="M 26 -4.7683716e-07 C 11.640611 -4.7683716e-07 0 11.640611 0 26 C 0 40.359388 11.640611 52 26 52 C 40.359389 52 52 40.359388 52 26 C 52 11.640611 40.359389 -4.7683716e-07 26 -4.7683716e-07 z M 30.890625 10.949218 C 32.387983 10.969497 33.517129 11.683324 33.580078 13.695312 L 33.654297 16.027343 L 31.455078 16.117187 C 28.498932 16.238582 28.283203 16.488965 28.283203 19.802734 L 28.283203 22.195312 L 30.865234 22.195312 L 33.445312 22.195312 L 33.271484 23.787109 C 33.175854 24.663006 33.031699 25.810399 32.951172 26.335937 L 32.804688 27.291015 L 30.544922 27.291015 L 28.283203 27.291015 L 28.283203 34.171875 L 28.283203 41.050781 L 25.609375 41.050781 L 22.933594 41.050781 L 22.933594 34.171875 L 22.933594 27.291015 L 20.640625 27.291015 L 18.345703 27.291015 L 18.345703 24.742187 L 18.345703 22.195312 L 20.640625 22.195312 L 22.933594 22.195312 L 22.933594 19.310546 C 22.933594 15.81203 23.323768 14.47506 24.769531 13.029296 C 26.431461 12.045043 28.96545 10.923145 30.890625 10.949218 z " /></g></svg>
