<?xml version="1.0" encoding="UTF-8" standalone="no"?>
<svg
   width="52"
   height="52"
   viewBox="0 0 52 52"
   fill="none"
   version="1.1"
   id="svg4"
   xmlns="http://www.w3.org/2000/svg"
   xmlns:svg="http://www.w3.org/2000/svg">
  <defs
     id="defs8" />
  <path
     style="fill:#ffffff;stroke-width:0.0660029"
     d="M 17.19525,51.771937 C 16.801163,51.629847 16.188713,51.386053 15.834249,51.230168 8.2046972,47.874913 2.6138192,41.124389 0.67913022,32.931603 0.14328121,30.662455 -0.00159579,29.314198 1.3214709e-5,26.611535 0.00141321,24.182988 0.06889321,23.413831 0.45445921,21.42841 0.91686022,19.047319 1.5795272,17.067468 2.6705522,14.807385 4.0209902,12.009926 5.6253832,9.7513668 7.8260162,7.5498618 12.220315,3.1538223 17.728996,0.58954107 23.9254,0.05562893 25.251698,-0.05865143 28.035226,0.01121415 29.339139,0.19151165 36.906231,1.237846 43.461407,5.4348479 47.675625,11.931587 c 3.680591,5.674086 5.071118,12.491012 3.942565,19.32804 -1.270984,7.699914 -5.993755,14.585667 -12.731861,18.56293 -1.353593,0.798978 -3.878229,1.949355 -4.685961,2.135209 -0.815293,0.187593 -1.695095,-0.395451 -2.044795,-1.355084 -0.122734,-0.336804 -0.130136,-0.581424 -0.160385,-5.300303 -0.03437,-5.361129 -0.04749,-5.570136 -0.399465,-6.359482 -0.09329,-0.209211 -0.161863,-0.388161 -0.152391,-0.397666 0.0095,-0.0095 0.494128,-0.126542 1.077013,-0.260078 6.828755,-1.564447 10.856706,-5.628769 11.422114,-11.52525 0.08968,-0.935271 0.03876,-2.765507 -0.103685,-3.726395 -0.221579,-1.494744 -0.641402,-2.888132 -1.240494,-4.117194 -0.484882,-0.994757 -0.896384,-1.610762 -1.830424,-2.740082 -0.07073,-0.08551 -0.05779,-0.160374 0.07817,-0.452047 0.603066,-1.293781 0.724927,-3.614624 0.283416,-5.397695 C 40.990074,9.7636478 40.532696,8.722007 40.280954,8.3941313 L 40.132382,8.2006274 39.379078,8.242988 c -2.228169,0.1252973 -4.650834,1.2217032 -6.369064,2.882396 l -0.598492,0.578449 -0.550487,-0.172396 c -3.338413,-1.045488 -8.822808,-1.001643 -11.919938,0.09529 l -0.380794,0.134869 -0.569777,-0.539502 C 17.989535,10.274294 16.906429,9.5443141 15.762207,9.0463114 14.566583,8.5259384 13.26275,8.2210595 12.229266,8.2201957 L 11.75783,8.2198023 11.603054,8.471535 c -0.707748,1.1511044 -1.035419,2.403447 -1.036549,3.961646 -10e-4,1.368311 0.291539,2.778444 0.713519,3.439488 0.107245,0.168003 0.146995,0.291633 0.110243,0.342885 -0.03161,0.04409 -0.258353,0.317097 -0.503877,0.606694 -1.2336428,1.455101 -2.1978198,3.485235 -2.6077058,5.490687 -0.25816,1.263103 -0.319741,2.037975 -0.28256,3.555378 0.04257,1.737252 0.237629,2.850358 0.728106,4.154945 1.3616708,3.621824 4.3656878,6.274811 8.7315738,7.711255 0.83229,0.273839 1.541831,0.464302 2.423717,0.650605 0.345861,0.07306 0.638535,0.142803 0.650389,0.15497 0.01186,0.01218 -0.04051,0.166167 -0.116361,0.342217 -0.205775,0.477618 -0.37605,1.433986 -0.425244,2.3884 -0.04992,0.968637 0.02028,0.872555 -0.806335,1.103496 -0.334605,0.09348 -0.682953,0.118526 -1.661028,0.119413 -1.089229,10e-4 -1.306358,-0.0175 -1.810812,-0.154229 -0.810707,-0.219726 -1.414972,-0.490453 -2.025206,-0.907349 -0.655053,-0.447518 -1.141509,-0.96549 -1.639431,-1.745649 -0.732444,-1.147616 -1.739491,-1.984724 -2.8821998,-2.395826 -0.966347,-0.347655 -2.195431,-0.263908 -2.326006,0.15849 -0.07932,0.256582 0.285031,0.708064 0.987049,1.2231 0.463708,0.340201 1.04641,0.996325 1.4734,1.659058 0.343264,0.532779 0.9041888,1.629667 1.0895718,2.130658 0.235206,0.635635 1.242514,1.899011 1.979614,2.482848 1.766288,1.399041 4.566254,1.930592 7.19303,1.365544 l 0.41055,-0.08832 -0.01972,2.049102 -0.01972,2.049113 -0.173295,0.379547 c -0.332073,0.727308 -0.901603,1.200503 -1.552871,1.290208 -0.238238,0.03281 -0.427285,-0.008 -1.009645,-0.217968 z"
     id="path40" />
</svg>
