<svg width="52" height="52" viewBox="0 0 52 52" fill="none" xmlns="http://www.w3.org/2000/svg">
<path d="M26 30.55C23.5625 30.55 21.45 28.6 21.45 26C21.45 23.5625 23.4 21.45 26 21.45C28.4375 21.45 30.55 23.4 30.55 26C30.55 28.4375 28.4375 30.55 26 30.55Z" fill="white"/>
<path fill-rule="evenodd" clip-rule="evenodd" d="M31.525 14.95H20.475C19.175 15.1125 18.525 15.275 18.0375 15.4375C17.3875 15.6 16.9 15.925 16.4125 16.4125C16.0267 16.7983 15.8445 17.184 15.6242 17.6503C15.5661 17.7731 15.5053 17.902 15.4375 18.0375C15.4124 18.1129 15.3833 18.1922 15.3522 18.2772C15.1822 18.7417 14.95 19.3761 14.95 20.475V31.525C15.1125 32.825 15.275 33.475 15.4375 33.9625C15.6 34.6125 15.925 35.1 16.4125 35.5875C16.7983 35.9733 17.184 36.1555 17.6503 36.3758C17.7733 36.4339 17.9018 36.4947 18.0375 36.5625C18.1129 36.5876 18.1922 36.6167 18.2772 36.6478C18.7417 36.8178 19.3761 37.05 20.475 37.05H31.525C32.825 36.8875 33.475 36.725 33.9625 36.5625C34.6125 36.4 35.1 36.075 35.5875 35.5875C35.9733 35.2017 36.1555 34.816 36.3758 34.3497C36.4339 34.2268 36.4947 34.0981 36.5625 33.9625C36.5876 33.8871 36.6167 33.8078 36.6478 33.7228C36.8178 33.2583 37.05 32.6239 37.05 31.525V20.475C36.8875 19.175 36.725 18.525 36.5625 18.0375C36.4 17.3875 36.075 16.9 35.5875 16.4125C35.2017 16.0267 34.816 15.8445 34.3497 15.6242C34.2269 15.5662 34.0979 15.5052 33.9625 15.4375C33.8871 15.4124 33.8078 15.3833 33.7228 15.3522C33.2583 15.1822 32.6239 14.95 31.525 14.95ZM26 19.0125C22.1 19.0125 19.0125 22.1 19.0125 26C19.0125 29.9 22.1 32.9875 26 32.9875C29.9 32.9875 32.9875 29.9 32.9875 26C32.9875 22.1 29.9 19.0125 26 19.0125ZM34.775 18.85C34.775 19.7475 34.0475 20.475 33.15 20.475C32.2525 20.475 31.525 19.7475 31.525 18.85C31.525 17.9525 32.2525 17.225 33.15 17.225C34.0475 17.225 34.775 17.9525 34.775 18.85Z" fill="white"/>
<path fill-rule="evenodd" clip-rule="evenodd" d="M0 26C0 11.6406 11.6406 0 26 0C40.3594 0 52 11.6406 52 26C52 40.3594 40.3594 52 26 52C11.6406 52 0 40.3594 0 26ZM20.475 12.5125H31.525C32.9875 12.675 33.9625 12.8375 34.775 13.1625C35.75 13.65 36.4 13.975 37.2125 14.7875C38.025 15.6 38.5125 16.4125 38.8375 17.225C39.1625 18.0375 39.4875 19.0125 39.4875 20.475V31.525C39.325 32.9875 39.1625 33.9625 38.8375 34.775C38.35 35.75 38.025 36.4 37.2125 37.2125C36.4 38.025 35.5875 38.5125 34.775 38.8375C33.9625 39.1625 32.9875 39.4875 31.525 39.4875H20.475C19.0125 39.325 18.0375 39.1625 17.225 38.8375C16.25 38.35 15.6 38.025 14.7875 37.2125C13.975 36.4 13.4875 35.5875 13.1625 34.775C12.8375 33.9625 12.5125 32.9875 12.5125 31.525V20.475C12.675 19.0125 12.8375 18.0375 13.1625 17.225C13.65 16.25 13.975 15.6 14.7875 14.7875C15.6 13.975 16.4125 13.4875 17.225 13.1625C18.0375 12.8375 19.0125 12.5125 20.475 12.5125Z" fill="white"/>
</svg>
