<svg width="52" height="52" viewBox="0 0 52 52" fill="none" xmlns="http://www.w3.org/2000/svg">
<g clip-path="url(#clip0_32_7)">
<path d="M26 0C22.5857 -3.32445e-06 19.2047 0.672505 16.0502 1.97913C12.8958 3.28575 10.0296 5.2009 7.61522 7.61522C5.2009 10.0296 3.28575 12.8958 1.97913 16.0502C0.672505 19.2047 -3.32445e-06 22.5857 0 26C-3.25218e-06 29.4144 0.672505 32.7953 1.97913 35.9498C3.28575 39.1043 5.2009 41.9705 7.61522 44.3848C10.0296 46.7992 12.8958 48.7143 16.0502 50.0209C19.2047 51.3275 22.5857 52.0001 26 52.0001C29.4144 52.0001 32.7953 51.3275 35.9498 50.0209C39.1043 48.7143 41.9705 46.7992 44.3848 44.3848C46.7992 41.9705 48.7143 39.1043 50.0209 35.9498C51.3275 32.7953 52.0001 29.4144 52.0001 26C52.0001 22.5857 51.3275 19.2047 50.0209 16.0502C48.7143 12.8958 46.7992 10.0296 44.3848 7.61522C41.9705 5.2009 39.1043 3.28575 35.9498 1.97913C32.7953 0.672505 29.4144 -3.25218e-06 26 0V0ZM31.2685 15.1976C36.3503 15.1984 38.4406 15.2174 38.6582 15.2589C39.7587 15.4685 41.2413 16.1423 42.2139 16.8749C43.9002 18.1451 44.899 19.9054 45.2284 22.1875C45.8555 26.5327 43.1697 30.2881 38.7593 31.2325C37.9743 31.4006 36.5162 31.5354 36.0925 31.4792C35.9174 31.456 35.7739 31.4601 35.7733 31.4889C35.75 32.6426 35.4712 33.9359 35.0907 34.657C34.7943 35.2189 33.9984 35.9985 33.4521 36.2624C32.4751 36.7342 32.7616 36.7064 28.411 36.7547C26.2401 36.7787 22.2997 36.8 19.6545 36.8019C15.2706 36.8053 14.8096 36.7951 14.4468 36.6896C12.9005 36.2402 11.9041 35.2684 11.5129 33.8294C11.4036 33.4271 11.3958 32.8243 11.4006 24.8408C11.4063 15.3569 11.3839 15.8452 11.8327 15.4153L12.0342 15.2223L25.1482 15.203C27.5484 15.1994 29.5746 15.1973 31.2685 15.1976ZM35.8738 19.3353L35.8566 23.3725L35.8394 27.4097L37.0572 27.3855L38.275 27.3614L38.9318 27.0367C40.0252 26.4959 40.6637 25.72 40.9902 24.5366C41.0755 24.2272 41.1086 23.858 41.1111 23.1828C41.114 22.379 41.0933 22.1943 40.9606 21.8102C40.6384 20.8778 39.9141 20.0668 38.9785 19.5917L38.4734 19.3353H37.1733H35.8738ZM27.0195 20.2505C26.7748 20.2488 26.53 20.2721 26.2902 20.3231C25.4662 20.4983 24.5568 20.9858 23.8852 21.6119L23.5719 21.9042L23.1221 21.492C22.0308 20.4918 20.4195 20.0731 19.03 20.4284C17.4443 20.834 16.5848 21.9771 16.5933 23.6697C16.5983 24.6731 16.9159 25.6993 17.4747 26.5149C17.594 26.6889 18.1259 27.2756 18.6565 27.8187C20.0961 29.2922 23.4128 32.3702 23.5611 32.3702C23.631 32.3702 23.8181 32.2622 23.9766 32.13C25.1354 31.1635 29.1619 27.1384 29.7089 26.3999C30.6436 25.1377 30.8591 23.3848 30.2329 22.138C29.6636 21.0047 28.3409 20.2598 27.0195 20.2505Z" fill="white"/>
</g>
<defs>
<clipPath id="clip0_32_7">
<rect width="52" height="52" fill="white"/>
</clipPath>
</defs>
</svg>
