<svg width="52" height="52" viewBox="0 0 52 52" fill="none" xmlns="http://www.w3.org/2000/svg">
<g clip-path="url(#clip0_32_10)">
<path d="M24.928 52C24.2188 51.9668 22.8663 51.8131 21.9879 51.6657C17.9491 50.9883 14.0687 49.3239 10.8213 46.8762C8.90657 45.433 7.02687 43.5542 5.61636 41.6739C1.59296 36.3104 -0.173301 29.5993 0.675449 22.9002C1.23238 18.5044 2.94716 14.2766 5.61636 10.7183C7.0233 8.84276 8.93403 6.93252 10.8213 5.51472C17.0322 0.848761 25.0386 -0.75492 32.6273 1.14699C42.5131 3.62459 50.1024 11.8476 51.7678 21.8857C52.0488 23.5795 52.1063 24.312 52.1063 26.1961C52.1063 28.0803 52.0488 28.8127 51.7678 30.5065C51.1008 34.527 49.4451 38.3901 46.9818 41.6739C45.5735 43.5513 43.6252 45.498 41.7505 46.9009C36.9357 50.504 31.0544 52.2867 24.928 52ZM20.7906 41.0435C20.8927 40.9415 20.9201 40.8596 20.9201 40.6572C20.9201 40.329 20.8411 40.2529 20.145 39.9101C19.3193 39.5035 19.3908 39.7766 19.3908 37.0261V34.6865H19.5835C19.6895 34.6865 20.0396 34.7719 20.3614 34.8763C21.8516 35.3597 23.9883 35.8235 25.719 36.0393C26.6272 36.1525 29.2748 36.1699 30.096 36.0681C31.6 35.8815 33.0078 35.5602 34.1719 35.1379C37.7918 33.8249 40.3173 31.6874 41.7768 28.7011C42.5854 27.0467 42.9279 25.5622 42.9266 23.7176C42.9252 21.8557 42.5689 20.3427 41.7279 18.6286C39.9829 15.0722 36.8502 12.5736 32.9437 11.6225C31.4465 11.258 30.379 11.1262 28.5403 11.0791C23.4941 10.9498 18.6717 12.4573 14.1172 15.5879C12.8524 16.4573 10.9699 17.954 10.2852 18.6346C9.3727 19.5415 9.40639 20.0581 10.4791 21.6082C10.71 21.9417 10.9844 22.3631 11.0889 22.5445C11.1934 22.726 11.3296 22.9099 11.3914 22.9532C11.5491 23.0636 11.7582 23.0513 11.9227 22.9219C12.1751 22.7234 12.2188 22.5664 12.2188 21.8577C12.2188 20.9828 12.2875 20.7642 12.7613 20.1316C13.203 19.5418 14.534 18.1926 15.1719 17.688L15.6202 17.3334L15.635 28.1326C15.6463 36.3952 15.6349 38.986 15.5866 39.1629C15.5052 39.4608 15.2451 39.7189 14.9053 39.839C14.3561 40.0331 14.1088 40.3806 14.2216 40.7997C14.3248 41.183 14.1925 41.1685 17.6133 41.1709L20.6612 41.1727L20.7906 41.0435ZM26.1936 33.9172C25.391 33.8492 24.7054 33.7639 24.0578 33.6515C22.8032 33.4337 20.6433 32.838 20.0885 32.5569C19.5899 32.3042 19.3603 31.9281 19.3766 31.3905C19.3801 31.2745 19.3835 27.7624 19.3845 23.5857C19.386 15.3205 19.3723 15.7061 19.6787 15.3044C19.9804 14.9089 22.411 13.8996 24.1307 13.4557C25.3342 13.1451 25.9832 13.0575 27.3011 13.028C28.992 12.9901 30.1581 13.1649 31.6406 13.6784C34.8016 14.7733 37.2079 17.5818 38.0864 21.2016C38.4225 22.5866 38.4649 24.3628 38.1927 25.6609C37.6251 28.3683 36.1367 30.6305 33.9722 32.0755C32.5517 33.0238 31.0088 33.5807 29.1469 33.8173C28.5152 33.8975 26.6901 33.9593 26.1937 33.9172H26.1936Z" fill="white"/>
</g>
<defs>
<clipPath id="clip0_32_10">
<rect width="52" height="52" fill="white"/>
</clipPath>
</defs>
</svg>
