<?xml version="1.0" encoding="UTF-8" standalone="no"?>
<svg
   width="52"
   height="52"
   viewBox="0 0 52 52"
   fill="none"
   version="1.1"
   id="svg70"
   sodipodi:docname="instagram.svg"
   xml:space="preserve"
   xmlns:inkscape="http://www.inkscape.org/namespaces/inkscape"
   xmlns:sodipodi="http://sodipodi.sourceforge.net/DTD/sodipodi-0.dtd"
   xmlns="http://www.w3.org/2000/svg"
   xmlns:svg="http://www.w3.org/2000/svg"><defs
     id="defs74" /><sodipodi:namedview
     id="namedview72"
     pagecolor="#ffffff"
     bordercolor="#666666"
     borderopacity="1.0"
     inkscape:showpageshadow="2"
     inkscape:pageopacity="0.0"
     inkscape:pagecheckerboard="0"
     inkscape:deskcolor="#d1d1d1"
     showgrid="false" /><g
     inkscape:groupmode="layer"
     id="layer1"
     inkscape:label="BG"
     style="display:none"><rect
       style="fill:#000000"
       id="rect410"
       width="52"
       height="52"
       x="0"
       y="9.5367432e-07"
       ry="0.27732772" /></g><g
     inkscape:groupmode="layer"
     id="layer2"
     inkscape:label="Deco"
     style="display:none;fill:#ffffff"><path
       d="m 25.999998,30.55 c -2.4375,0 -4.55,-1.95 -4.55,-4.55 0,-2.4375 1.95,-4.55 4.55,-4.55 2.4375,0 4.55,1.95 4.55,4.55 0,2.4375 -2.1125,4.55 -4.55,4.55 z"
       fill="#ffffff"
       id="path64"
       style="fill:#ffffff" /><path
       fill-rule="evenodd"
       clip-rule="evenodd"
       d="m 31.524998,14.95 h -11.05 c -1.3,0.1625 -1.95,0.325 -2.4375,0.4875 -0.65,0.1625 -1.1375,0.4875 -1.625,0.975 -0.3858,0.3858 -0.568,0.7715 -0.7883,1.2378 -0.0581,0.1228 -0.1189,0.2517 -0.1867,0.3872 -0.0251,0.0754 -0.0542,0.1547 -0.0853,0.2397 -0.17,0.4645 -0.4022,1.0989 -0.4022,2.1978 v 11.05 c 0.1625,1.3 0.325,1.95 0.4875,2.4375 0.1625,0.65 0.4875,1.1375 0.975,1.625 0.3858,0.3858 0.7715,0.568 1.2378,0.7883 0.123,0.0581 0.2515,0.1189 0.3872,0.1867 0.0754,0.0251 0.1547,0.0542 0.2397,0.0853 0.4645,0.17 1.0989,0.4022 2.1978,0.4022 h 11.05 c 1.3,-0.1625 1.95,-0.325 2.4375,-0.4875 C 34.6125,36.4 35.1,36.075 35.5875,35.5875 c 0.3858,-0.3858 0.568,-0.7715 0.7883,-1.2378 0.0581,-0.1229 0.1189,-0.2516 0.1867,-0.3872 0.0251,-0.0754 0.0542,-0.1547 0.0853,-0.2397 0.17,-0.4645 0.4022,-1.0989 0.4022,-2.1978 v -11.05 c -0.1625,-1.3 -0.325,-1.95 -0.4875,-2.4375 -0.1625,-0.65 -0.4875,-1.1375 -0.975,-1.625 -0.3858,-0.3858 -0.7715,-0.568 -1.237802,-0.7883 -0.1228,-0.058 -0.2518,-0.119 -0.3872,-0.1867 -0.0754,-0.0251 -0.1547,-0.0542 -0.2397,-0.0853 -0.4645,-0.17 -1.0989,-0.4022 -2.1978,-0.4022 z m -5.525,4.0625 c -3.9,0 -6.9875,3.0875 -6.9875,6.9875 0,3.9 3.0875,6.9875 6.9875,6.9875 3.9,0 6.9875,-3.0875 6.9875,-6.9875 0,-3.9 -3.0875,-6.9875 -6.9875,-6.9875 z M 34.775,18.85 c 0,0.8975 -0.727502,1.625 -1.625002,1.625 -0.8975,0 -1.625,-0.7275 -1.625,-1.625 0,-0.8975 0.7275,-1.625 1.625,-1.625 0.8975,0 1.625002,0.7275 1.625002,1.625 z"
       fill="#ffffff"
       id="path66"
       style="fill:#ffffff" /><path
       fill-rule="evenodd"
       clip-rule="evenodd"
       d="M -2e-6,26 C -2e-6,11.6406 11.640598,2e-7 25.999998,2e-7 40.3594,2e-7 52,11.6406 52,26 52,40.3594 40.3594,52 25.999998,52 c -14.3594,0 -26,-11.6406 -26,-26 z m 20.475,-13.4875 h 11.05 c 1.4625,0.1625 2.4375,0.325 3.250002,0.65 0.975,0.4875 1.625,0.8125 2.4375,1.625 0.8125,0.8125 1.3,1.625 1.625,2.4375 0.325,0.8125 0.65,1.7875 0.65,3.25 v 11.05 c -0.1625,1.4625 -0.325,2.4375 -0.65,3.25 -0.4875,0.975 -0.8125,1.625 -1.625,2.4375 -0.8125,0.8125 -1.625,1.3 -2.4375,1.625 -0.812502,0.325 -1.787502,0.65 -3.250002,0.65 h -11.05 c -1.4625,-0.1625 -2.4375,-0.325 -3.25,-0.65 -0.975,-0.4875 -1.625,-0.8125 -2.4375,-1.625 -0.8125,-0.8125 -1.3,-1.625 -1.625,-2.4375 -0.325,-0.8125 -0.65,-1.7875 -0.65,-3.25 v -11.05 c 0.1625,-1.4625 0.325,-2.4375 0.65,-3.25 0.4875,-0.975 0.8125,-1.625 1.625,-2.4375 0.8125,-0.8125 1.625,-1.3 2.4375,-1.625 0.8125,-0.325 1.7875,-0.65 3.25,-0.65 z"
       fill="#ffffff"
       id="path68"
       style="fill:#ffffff" /></g><g
     inkscape:groupmode="layer"
     id="layer3"
     inkscape:label="Deco 2"
     style="display:inline"><path
       id="path561"
       style="fill:#ffffff"
       d="M 26,0 A 26,26 0 0 0 0,26 26,26 0 0 0 26,52 26,26 0 0 0 52,26 26,26 0 0 0 26,0 Z m 0.710938,12.65625 h 2.253906 c 2.496223,0 2.302066,-0.100838 2.539062,1.296875 0.414823,2.446443 2.857518,4.715168 5.333985,4.953125 l 0.86914,0.08398 v 2.335938 2.335937 h -0.671875 c -1.076339,0 -3.316859,-0.649475 -4.519531,-1.310547 -0.611216,-0.335966 -1.146673,-0.611328 -1.191406,-0.611328 -0.04473,0 -0.08203,2.39016 -0.08203,5.310547 0,4.824437 -0.03068,5.412755 -0.34961,6.445313 -0.707931,2.292009 -2.375886,4.151574 -4.708984,5.25 -1.007932,0.474536 -1.337199,0.5371 -3.058594,0.585937 -1.531939,0.04346 -2.133265,-0.01237 -2.929688,-0.27539 -2.717479,-0.897458 -4.899867,-3.253068 -5.636718,-6.082032 -1.376606,-5.285144 2.80627,-10.535156 8.394531,-10.535156 h 0.953125 v 2.402344 2.402344 l -0.865234,-0.06055 c -3.068113,-0.212657 -5.044549,2.995822 -3.501954,5.685547 0.718884,1.253469 1.762051,1.860229 3.212891,1.867187 1.61098,0.0077 2.748164,-0.688696 3.535156,-2.164062 0.305253,-0.57226 0.32884,-1.230165 0.375,-10.263672 z" /></g></svg>
