<svg width="52" height="52" viewBox="0 0 52 52" fill="none" xmlns="http://www.w3.org/2000/svg">
<path fill-rule="evenodd" clip-rule="evenodd" d="M0 26C0 11.6406 11.6406 0 26 0C40.3594 0 52 11.6406 52 26C52 40.3594 40.3594 52 26 52C11.6406 52 0 40.3594 0 26ZM35.9125 18.6875C37.05 18.525 38.025 18.3625 39 17.875C38.35 19.0125 37.375 19.9875 36.2375 20.6375C36.5625 28.275 31.0375 36.5625 21.125 36.5625C18.2 36.5625 15.4375 35.5875 13 34.125C15.7625 34.45 18.6875 33.6375 20.6375 32.175C18.2 32.175 16.25 30.55 15.6 28.4375C16.4125 28.6 17.225 28.4375 18.0375 28.275C15.6 27.625 13.8125 25.35 13.8125 22.9125C14.625 23.2375 15.4375 23.5625 16.25 23.5625C13.975 21.9375 13.1625 18.85 14.625 16.4125C17.3875 19.6625 21.2875 21.775 25.675 21.9375C24.8625 18.6875 27.4625 15.4375 30.875 15.4375C32.3375 15.4375 33.8 16.0875 34.775 17.0625C36.075 16.7375 37.2125 16.4125 38.1875 15.7625C37.8625 17.0625 37.05 18.0375 35.9125 18.6875Z" fill="white"/>
</svg>
